<svg height="449" viewBox="0 0 2065 449" width="2065" xmlns="http://www.w3.org/2000/svg" xmlns:xlink="http://www.w3.org/1999/xlink"><linearGradient id="a"><stop offset="0" stop-color="#fff"/><stop offset="1" stop-color="#fff"/></linearGradient><linearGradient id="b" x1="65.091%" x2="49.886%" xlink:href="#a" y1="35.994%" y2="50.107%"/><linearGradient id="c" x1="50%" x2="50%" xlink:href="#a" y1="100.195%" y2="-2.626%"/><linearGradient id="d" x1="35.17%" x2="50.197%" xlink:href="#a" y1="34.204%" y2="50.209%"/><linearGradient id="e" x1="17.173%" x2="49.103%" xlink:href="#a" y1="20.806%" y2="49.201%"/><linearGradient id="f" x1="51.435%" x2="50.799%" xlink:href="#a" y1="51.895%" y2="51.032%"/><linearGradient id="g" x1="66.214%" x2="49.121%" xlink:href="#a" y1="32.804%" y2="50.93%"/><g fill="none" fill-rule="nonzero"><g transform="translate(91 45)"><path d="m46.213 47.457 126.462 247.431v-179.812z" fill="url(#b)"/><path d="m305.17 33.029h-246.316l123.158 65.849z" fill="url(#c)"/><path d="m317.803 47.457-126.454 67.619v179.82z" fill="url(#d)"/><path d="m346.598 31.948-154.281 302.278v24.67l171.683-336.38z" fill="url(#e)"/><path d="m1.68 0 20.714 11.218h319.292l20.706-11.218z" fill="url(#f)"/><path d="m171.763 334.331-154.361-302.423-17.402-9.424 171.763 336.516z" fill="url(#g)"/></g><path d="m142.39 1.73233526v87.88000004c-.027603 8.4917723-5.166701 16.1311557-13.021841 19.3572567-7.855141 3.226101-16.880109 1.403891-22.868159-4.617257l-87.88-89.2299997v93.6899997h-18.62v-87.8699997c.02357639-8.4935912 5.16119842-16.13666397 13.0172406-19.36532439 7.8560422-3.22866042 16.8834234-1.40709218 22.8727594 4.61532435l87.87 89.22000004v-93.70000004zm318.13 107.08002774h-112.13c-7.71932.010602-15.12568-3.050495-20.585007-8.507946s-8.522969-12.8627582-8.515021-20.5820817v-48.89c-.010607-7.7210553 3.051862-15.128935 8.511477-20.5885507 5.459616-5.45961568 12.867496-8.52208442 20.588551-8.51147695h112.13v18.68002765h-122.6v25.6h122.6v18.62h-122.6v25.61h122.6zm333.65-107.08002774-67.12 64.60000004c-2.076788 2.1356185-4.595684 3.790991-7.38 4.85v37.6299997h-18.62v-37.6299997c-2.779999-1.0617368-5.295075-2.7168413-7.37-4.85l-67.12-64.60000004h27.35l56.45 55.29000004 56.45-55.29000004zm298.54 107.08002774h-112.13c-7.71932.010602-15.12568-3.050495-20.585007-8.507946s-8.522969-12.8627582-8.515021-20.5820817v-48.89c-.010607-7.7210553 3.051862-15.128935 8.511477-20.5885507 5.459616-5.45961568 12.867496-8.52208442 20.588551-8.51147695h112.13v18.68002765h-122.6v25.6h122.6v18.62h-122.6v25.61h122.6zm319.29-107.08002774v87.88000004c-.0276 8.4917723-5.1667 16.1311557-13.02184 19.3572567s-16.88011 1.403891-22.86816-4.617257l-87.87-89.2299997v93.6899997h-18.63v-87.8699997c.02358-8.4935912 5.1612-16.13666397 13.01724-19.36532439s16.88342-1.40709218 22.87276 4.61532435l87.88 89.22000004v-93.70000004z" fill="#fff" transform="translate(653 169)"/></g></svg>